<?xml version="1.0" encoding="UTF-8" standalone="no"?>
<!-- Generator: Adobe Illustrator 19.0.0, SVG Export Plug-In . SVG Version: 6.00 Build 0)  -->

<svg
   xmlns:dc="http://purl.org/dc/elements/1.1/"
   xmlns:cc="http://creativecommons.org/ns#"
   xmlns:rdf="http://www.w3.org/1999/02/22-rdf-syntax-ns#"
   xmlns:svg="http://www.w3.org/2000/svg"
   xmlns="http://www.w3.org/2000/svg"
   xmlns:sodipodi="http://sodipodi.sourceforge.net/DTD/sodipodi-0.dtd"
   xmlns:inkscape="http://www.inkscape.org/namespaces/inkscape"
   version="1.1"
   id="Layer_2"
   x="0px"
   y="0px"
   viewBox="0 0 262 253.03575"
   xml:space="preserve"
   sodipodi:docname="blue_acervatio.svg"
   inkscape:version="0.92.2 2405546, 2018-03-11"
   width="262"
   height="253.03575"><metadata
   id="metadata13"><rdf:RDF><cc:Work
       rdf:about=""><dc:format>image/svg+xml</dc:format><dc:type
         rdf:resource="http://purl.org/dc/dcmitype/StillImage" /><dc:title></dc:title></cc:Work></rdf:RDF></metadata><defs
   id="defs11" /><sodipodi:namedview
   pagecolor="#ffffff"
   bordercolor="#666666"
   borderopacity="1"
   objecttolerance="10"
   gridtolerance="10"
   guidetolerance="10"
   inkscape:pageopacity="0"
   inkscape:pageshadow="2"
   inkscape:window-width="1366"
   inkscape:window-height="706"
   id="namedview9"
   showgrid="false"
   inkscape:zoom="0.42142857"
   inkscape:cx="135"
   inkscape:cy="103.63575"
   inkscape:window-x="0"
   inkscape:window-y="34"
   inkscape:window-maximized="1"
   inkscape:current-layer="Layer_2" />
<style
   type="text/css"
   id="style2">
	.st0{fill:#014771;}
	.st1{fill:#0277BD;}
	.st2{fill:#1565C0;}
</style>
<path
   id="XMLID_36_"
   class="st0"
   d="m 262,222.8 v -136 c 0,-6.6 -3.5,-12.7 -9.2,-16 L 131,0 v 75.2 l 127.5,148.9 c 1.2,1.4 3.5,0.6 3.5,-1.3 z"
   inkscape:connector-curvature="0"
   style="fill:#014771" />
<path
   id="XMLID_35_"
   class="st1"
   d="M 0,223.2 V 87.2 C 0,80.6 3.5,74.5 9.2,71.2 L 131,0.4 V 75.6 L 3.5,224.5 C 2.3,225.9 0,225 0,223.2 Z"
   inkscape:connector-curvature="0"
   style="fill:#0277bd" />
<path
   id="XMLID_34_"
   class="st0"
   d="M 132.1,192 132.5,107.3 7.3,249 c -1.5,1.6 0.4,4.1 2.4,3.1 z"
   inkscape:connector-curvature="0"
   style="fill:#014771" />
<path
   id="XMLID_33_"
   class="st2"
   d="m 132.1,192 0.4,-84.7 123,142.4 c 1.4,1.7 -0.5,4.1 -2.4,3.1 z"
   inkscape:connector-curvature="0"
   style="fill:#1565c0" />
</svg>